<svg xmlns="http://www.w3.org/2000/svg" viewBox="0 0 566.92932 213.332">
  <path d="m 0,0 c 6.846,0 10.27,2.691 10.27,8.074 0,5.054 -3.442,7.582 -10.325,7.582 H -12.91 V 0 Z m 0,18.842 c 2.746,0 4.897,0.603 6.453,1.813 1.556,1.208 2.334,2.819 2.334,4.833 0,4.905 -2.965,7.36 -8.897,7.36 h -12.8 V 18.842 Z m -0.055,17.192 c 4.064,0 7.176,-0.815 9.337,-2.445 2.16,-1.629 3.241,-4 3.241,-7.113 0,-2.051 -0.597,-3.909 -1.786,-5.575 -1.19,-1.666 -2.864,-2.756 -5.025,-3.269 v -0.11 c 2.525,-0.328 4.54,-1.363 6.041,-3.102 1.501,-1.74 2.253,-3.893 2.253,-6.456 0,-3.662 -1.192,-6.436 -3.571,-8.32 C 8.054,-2.243 4.577,-3.186 0,-3.186 h -16.644 v 39.22 z" fill="#1f2f5f" transform="matrix(1.3333333,0,0,-1.3333333,221.6972,181.79173)"/>
  <path d="m 0,0 c 0,-1.061 0.348,-1.949 1.045,-2.664 0.695,-0.713 1.593,-1.072 2.691,-1.072 1.061,0 1.949,0.359 2.664,1.072 C 7.113,-1.949 7.472,-1.061 7.472,0 7.472,0.99 7.131,1.858 6.455,2.609 5.777,3.359 4.852,3.736 3.681,3.736 2.693,3.736 1.831,3.396 1.1,2.719 0.367,2.041 0,1.135 0,0 M 3.736,5.879 C 5.347,5.879 6.73,5.292 7.883,4.121 9.036,2.947 9.612,1.575 9.612,0 9.612,-1.575 9.054,-2.947 7.938,-4.119 6.82,-5.292 5.42,-5.877 3.736,-5.877 c -1.611,0 -2.995,0.567 -4.147,1.703 -1.153,1.135 -1.73,2.526 -1.73,4.174 0,1.575 0.558,2.947 1.675,4.121 1.116,1.171 2.517,1.758 4.202,1.758 m 7.196,-27.74 c -0.366,-0.66 -1.558,-1.118 -3.57,-1.372 l -3.461,-0.495 c -3.406,-0.477 -5.769,-1.182 -7.087,-2.117 -1.318,-0.933 -1.976,-2.206 -1.976,-3.817 0,-1.538 0.585,-2.848 1.756,-3.927 1.174,-1.08 2.693,-1.64 4.561,-1.675 2.819,0 5.162,0.823 7.029,2.471 1.868,1.648 2.82,3.773 2.858,6.372 v 4.56 z M 4.121,-8.184 c 6.921,0 10.38,-3.04 10.38,-9.118 v -15.051 c 0,-1.393 0.678,-2.088 2.033,-2.088 0.44,0 0.805,0.074 1.098,0.22 v -2.911 c -0.658,-0.146 -1.391,-0.22 -2.196,-0.22 -1.611,0 -2.701,0.404 -3.269,1.208 -0.569,0.805 -0.852,1.997 -0.852,3.571 v 0.165 h -0.11 c -1.318,-2.088 -2.764,-3.571 -4.338,-4.449 -1.575,-0.88 -3.571,-1.317 -5.987,-1.317 -2.966,0 -5.284,0.731 -6.948,2.195 -1.668,1.465 -2.52,3.498 -2.554,6.097 0,1.868 0.419,3.387 1.263,4.561 0.841,1.171 2.122,2.088 3.845,2.745 1.719,0.66 4.614,1.208 8.678,1.648 2.161,0.22 3.542,0.459 4.147,0.715 0.605,0.255 1.043,0.65 1.318,1.18 0.275,0.531 0.413,1.236 0.413,2.116 0,2.049 -0.623,3.532 -1.868,4.449 -1.246,0.914 -3.096,1.373 -5.548,1.373 -4.797,-0.037 -7.325,-2.235 -7.58,-6.592 h -3.461 c 0.184,3.149 1.263,5.52 3.241,7.113 1.978,1.593 4.742,2.39 8.295,2.39" fill="#1f2f5f" transform="matrix(1.3333333,0,0,-1.3333333,254.35907,136.23733)"/>
  <path d="m 0,0 v -8.512 h 5.769 v -2.911 H 0 V -30.76 c 0,-1.318 0.238,-2.235 0.715,-2.746 0.475,-0.513 1.3,-0.77 2.471,-0.77 0.696,0 1.556,0.055 2.583,0.165 v -2.966 c -1.465,-0.073 -2.492,-0.11 -3.076,-0.11 -2.455,0 -4.092,0.495 -4.917,1.483 -0.823,0.99 -1.237,2.547 -1.237,4.669 v 19.612 h -4.941 v 2.911 h 4.941 V 0 Z" fill="#1f2f5f" transform="matrix(1.3333333,0,0,-1.3333333,286.83893,136.89733)"/>
  <path d="m 0,0 8.899,-24.883 h 0.11 L 17.797,0 h 3.571 L 10.767,-28.344 H 7.087 L -3.844,0 Z" fill="#1f2f5f" transform="matrix(1.3333333,0,0,-1.3333333,300.84227,148.2472)"/>
  <path d="m 0,0 c -0.073,2.819 -0.943,5.208 -2.609,7.168 -1.667,1.96 -3.818,2.939 -6.453,2.939 -2.492,0 -4.559,-0.906 -6.207,-2.719 C -16.917,5.575 -17.944,3.112 -18.347,0 Z m -9.007,13.018 c 3.807,0 6.838,-1.354 9.09,-4.064 2.251,-2.711 3.378,-6.392 3.378,-11.04 v -0.825 h -21.808 c 0,-3.222 0.852,-5.887 2.555,-7.993 1.702,-2.106 3.963,-3.157 6.785,-3.157 4.687,0 7.652,2.416 8.897,7.249 h 3.461 c -0.807,-3.479 -2.225,-6.041 -4.257,-7.689 -2.033,-1.648 -4.734,-2.471 -8.101,-2.471 -3.956,0 -7.079,1.336 -9.366,4.009 -2.29,2.672 -3.433,6.335 -3.433,10.985 0,4.469 1.153,8.085 3.459,10.849 2.308,2.764 5.421,4.147 9.34,4.147" fill="#1f2f5f" transform="matrix(1.3333333,0,0,-1.3333333,357.33093,164.50747)"/>
  <path d="m 0,0 h -0.55 c -2.892,0 -5.282,-0.961 -7.168,-2.884 -1.886,-1.923 -2.829,-4.368 -2.829,-7.333 v -15.051 h -3.461 V 3.076 h 3.186 v -6.647 h 0.11 c 0.843,2.269 2.143,4.009 3.9,5.219 1.758,1.208 3.789,1.813 6.097,1.813 l 0.715,0 z" fill="#1f2f5f" transform="matrix(1.3333333,0,0,-1.3333333,384.6424,152.34827)"/>
  <path d="m 0,0 v -24.608 l 15.709,13.733 h 4.616 L 8.239,-21.368 21.148,-39.219 H 16.809 L 5.604,-23.783 0,-28.454 V -39.219 H -3.461 V 0 Z" fill="#1f2f5f" transform="matrix(1.3333333,0,0,-1.3333333,391.40773,133.7468)"/>
  <path d="M 0,0 C 3.076,0 5.547,-0.796 7.414,-2.389 9.282,-3.982 10.27,-6.225 10.38,-9.117 H 6.92 c -0.074,1.977 -0.779,3.505 -2.115,4.587 -1.336,1.079 -3.104,1.619 -5.3,1.619 -2.051,0 -3.681,-0.44 -4.889,-1.318 -1.208,-0.88 -1.813,-2.069 -1.813,-3.57 0,-2.308 2.123,-3.938 6.372,-4.889 4.394,-0.988 7.087,-1.74 8.075,-2.253 0.987,-0.513 1.794,-1.124 2.417,-1.839 0.622,-0.713 1.062,-1.447 1.318,-2.198 0.255,-0.75 0.383,-1.585 0.383,-2.5 0,-2.562 -1.053,-4.623 -3.157,-6.178 C 6.105,-29.212 3.367,-29.99 0,-29.99 c -7.178,0 -11.061,3.33 -11.645,9.995 h 3.461 c 0.144,-2.271 0.969,-4.019 2.47,-5.245 1.502,-1.226 3.461,-1.839 5.877,-1.839 2.308,0 4.176,0.503 5.604,1.509 1.427,1.008 2.142,2.28 2.142,3.817 0,1.465 -0.541,2.591 -1.621,3.38 -1.08,0.786 -2.774,1.436 -5.08,1.949 l -3.681,0.825 c -2.782,0.621 -4.844,1.52 -6.18,2.691 -1.336,1.171 -2.004,2.819 -2.004,4.944 0,2.489 1.006,4.44 3.02,5.85 C -5.622,-0.705 -3.078,0 0,0" fill="#1f2f5f" transform="matrix(1.3333333,0,0,-1.3333333,433.58613,147.15)"/>
  <path d="m 0,0 v -8.512 h 5.769 v -2.911 H 0 V -30.76 c 0,-1.318 0.238,-2.235 0.715,-2.746 0.475,-0.513 1.3,-0.77 2.471,-0.77 0.696,0 1.556,0.055 2.583,0.165 v -2.966 c -1.465,-0.073 -2.492,-0.11 -3.076,-0.11 -2.455,0 -4.092,0.495 -4.917,1.483 -0.823,0.99 -1.237,2.547 -1.237,4.669 v 19.612 h -4.941 v 2.911 h 4.941 V 0 Z" fill="#1f2f5f" transform="matrix(1.3333333,0,0,-1.3333333,459.7732,136.89733)"/>
  <path d="m 0,0 c -0.367,-0.66 -1.556,-1.118 -3.571,-1.373 l -3.461,-0.495 c -3.403,-0.477 -5.766,-1.181 -7.084,-2.116 -1.318,-0.933 -1.978,-2.206 -1.978,-3.818 0,-1.537 0.585,-2.847 1.758,-3.927 1.171,-1.079 2.691,-1.639 4.559,-1.674 2.819,0 5.163,0.823 7.031,2.471 1.868,1.648 2.819,3.772 2.856,6.371 L 0.11,0 Z m -6.812,13.676 c 6.922,0 10.383,-3.039 10.383,-9.117 v -15.051 c 0,-1.394 0.676,-2.088 2.033,-2.088 0.438,0 0.804,0.073 1.098,0.22 v -2.911 c -0.66,-0.147 -1.392,-0.22 -2.198,-0.22 -1.612,0 -2.701,0.403 -3.268,1.208 -0.568,0.805 -0.851,1.996 -0.851,3.571 v 0.165 h -0.11 c -1.318,-2.088 -2.766,-3.571 -4.339,-4.449 -1.576,-0.88 -3.57,-1.318 -5.988,-1.318 -2.966,0 -5.282,0.731 -6.948,2.196 -1.667,1.464 -2.518,3.497 -2.555,6.097 0,1.867 0.422,3.387 1.263,4.56 0.843,1.171 2.125,2.088 3.846,2.746 1.721,0.66 4.614,1.208 8.679,1.648 2.16,0.22 3.543,0.458 4.148,0.715 0.603,0.255 1.043,0.65 1.318,1.179 0.275,0.532 0.411,1.237 0.411,2.117 0,2.049 -0.623,3.532 -1.868,4.448 -1.244,0.915 -3.094,1.373 -5.547,1.373 -4.799,-0.036 -7.324,-2.234 -7.581,-6.591 h -3.461 c 0.184,3.149 1.265,5.52 3.241,7.113 1.978,1.593 4.742,2.389 8.294,2.389" fill="#1f2f5f" transform="matrix(1.3333333,0,0,-1.3333333,495.3004,165.3848)"/>
  <path d="m 0,0 c 0,-3.552 0.823,-6.453 2.471,-8.706 1.648,-2.251 3.919,-3.377 6.811,-3.377 3.003,0 5.411,1.061 7.223,3.186 1.813,2.122 2.72,5.088 2.72,8.897 0,3.736 -0.888,6.683 -2.665,8.844 -1.776,2.162 -4.202,3.241 -7.278,3.241 -2.855,0 -5.116,-1.108 -6.783,-3.322 C 0.833,6.547 0,3.626 0,0 M 22.686,25.048 V -14.171 H 19.5 v 5.384 h -0.11 c -0.734,-1.795 -2.033,-3.278 -3.901,-4.451 -1.868,-1.171 -3.935,-1.756 -6.207,-1.756 -3.882,0 -6.976,1.344 -9.282,4.037 -2.308,2.691 -3.461,6.343 -3.461,10.957 0,4.506 1.145,8.129 3.432,10.877 2.29,2.746 5.392,4.119 9.311,4.119 2.308,0 4.376,-0.587 6.207,-1.758 1.831,-1.171 3.039,-2.654 3.626,-4.449 h 0.11 v 16.259 z" fill="#1f2f5f" transform="matrix(1.3333333,0,0,-1.3333333,509.19507,167.14467)"/>
  <path d="M 139.391,20.471 H 20.342 V 139.52 h 119.049 z" fill="#1f2f5f" transform="matrix(1.3333333,0,0,-1.3333333,0,213.332)"/>
  <path d="m 0,0 6.829,-6.828 c 0.506,-0.507 1.36,-0.447 1.773,0.138 5.091,7.219 8.116,15.999 8.116,25.505 0,9.506 -3.025,18.285 -8.116,25.505 -0.413,0.585 -1.267,0.644 -1.773,0.138 L 0,37.63 C -0.383,37.247 -0.438,36.658 -0.149,36.2 3.035,31.17 4.88,25.208 4.88,18.815 4.88,12.421 3.035,6.46 -0.149,1.43 -0.438,0.972 -0.383,0.383 0,0" fill="#42b8ea" transform="matrix(1.3333333,0,0,-1.3333333,143.38507,131.75773)"/>
  <path d="M 0,0 C -0.383,0.383 -0.972,0.438 -1.43,0.149 -6.46,-3.035 -12.421,-4.88 -18.815,-4.88 -25.208,-4.88 -31.17,-3.035 -36.2,0.149 -36.657,0.438 -37.247,0.383 -37.63,0 l -6.828,-6.828 c -0.506,-0.507 -0.447,-1.361 0.138,-1.774 7.22,-5.091 15.999,-8.115 25.505,-8.115 9.506,0 18.286,3.024 25.505,8.115 0.585,0.413 0.645,1.267 0.139,1.773 z" fill="#42b8ea" transform="matrix(1.3333333,0,0,-1.3333333,131.57493,143.56787)"/>
  <path d="m 0,0 c 0.392,-0.392 0.997,-0.449 1.466,-0.153 5.026,3.177 10.98,5.017 17.365,5.017 6.386,0 12.34,-1.84 17.366,-5.017 0.469,-0.296 1.073,-0.239 1.466,0.153 l 6.787,6.788 c 0.519,0.519 0.458,1.394 -0.142,1.817 -7.214,5.08 -15.983,8.096 -25.477,8.096 C 9.338,16.701 0.569,13.685 -6.645,8.605 -7.246,8.182 -7.307,7.307 -6.788,6.788 Z" fill="#42b8ea" transform="matrix(1.3333333,0,0,-1.3333333,81.38,69.752667)"/>
  <path d="m 0,0 -6.83,6.83 c -0.506,0.506 -1.359,0.446 -1.771,-0.139 -5.092,-7.219 -8.117,-15.999 -8.117,-25.505 0,-9.507 3.025,-18.287 8.117,-25.506 0.412,-0.585 1.266,-0.644 1.771,-0.138 L 0,-37.629 c 0.383,0.383 0.438,0.972 0.149,1.429 -3.185,5.03 -5.03,10.992 -5.03,17.386 0,6.393 1.845,12.355 5.03,17.385 C 0.438,-0.971 0.383,-0.383 0,0" fill="#42b8ea" transform="matrix(1.3333333,0,0,-1.3333333,69.592533,81.585467)"/>
  <path d="M210.5521 103.5383L199.6455 103.5383L199.6455 27.1921L229.4206 27.1921Q239.4546 27.1921 246.5439 30.3550Q253.6332 33.5179 257.4505 39.5165Q261.2678 45.5151 261.2678 53.8042Q261.2678 62.0932 257.4505 68.0373Q253.6332 73.9814 246.5439 77.1988Q239.4546 80.4163 229.4206 80.4163L210.5521 80.4163L210.5521 103.5383M210.5521 36.6808L210.5521 70.9275L229.0934 70.9275Q239.5637 70.9275 244.9625 66.4558Q250.3612 61.9841 250.3612 53.8042Q250.3612 45.6242 244.9625 41.1525Q239.5637 36.6808 229.0934 36.6808 M288.2016 103.5383L277.2950 103.5383L277.2950 27.1921L307.0701 27.1921Q321.9030 27.1921 330.4102 34.2268Q338.9173 41.2616 338.9173 53.8042Q338.9173 62.0932 335.1000 68.0373Q331.2827 73.9814 324.1934 77.1443Q323.2118 77.5806 322.1212 78.0168L340.2261 103.5383L328.3379 103.5383L311.8690 80.0891Q309.5786 80.3072 307.0701 80.3072L288.2016 80.3072L288.2016 103.5383M288.2016 36.6808L288.2016 71.0366L306.7429 71.0366Q317.2132 71.0366 322.6120 66.5104Q328.0107 61.9841 328.0107 53.8042Q328.0107 45.6242 322.6120 41.1525Q317.2132 36.6808 306.7429 36.6808 M367.4851 103.5383L356.5785 103.5383L356.5785 27.1921L367.4851 27.1921 M424.8532 104.4108Q416.1279 104.4108 408.6569 101.4660Q401.1859 98.5212 395.7326 93.2315Q390.2793 87.9418 387.2254 80.8525Q384.1716 73.7632 384.1716 65.3652Q384.1716 56.9671 387.2254 49.8778Q390.2793 42.7885 395.7326 37.4988Q401.1859 32.2091 408.6024 29.2643Q416.0188 26.3195 424.8532 26.3195Q433.5785 26.3195 440.9404 29.2098Q448.3024 32.1000 453.8102 37.3897Q459.3180 42.6794 462.3174 49.7687Q465.3167 56.8580 465.3167 65.3652Q465.3167 73.8723 462.3174 80.9616Q459.3180 88.0509 453.8102 93.3406Q448.3024 98.6303 440.9404 101.5205Q433.5785 104.4108 424.8532 104.4108M424.8532 94.7039Q431.1790 94.7039 436.5778 92.5226Q441.9765 90.3413 445.9575 86.3604Q449.9384 82.3795 452.1742 77.0352Q454.4101 71.6910 454.4101 65.3652Q454.4101 59.0393 452.1742 53.6951Q449.9384 48.3509 445.9575 44.3700Q441.9765 40.3890 436.5778 38.2077Q431.1790 36.0264 424.8532 36.0264Q418.4183 36.0264 413.0195 38.2077Q407.6208 40.3890 403.5853 44.3700Q399.5499 48.3509 397.3140 53.6951Q395.0782 59.0393 395.0782 65.3652Q395.0782 71.6910 397.3140 77.0352Q399.5499 82.3795 403.5853 86.3604Q407.6208 90.3413 413.0195 92.5226Q418.4183 94.7039 424.8532 94.7039 M481.7769 103.5383L469.2343 103.5383L497.9187 64.3836L470.9794 27.1921L483.4129 27.1921L504.7898 56.5308L525.9486 27.1921L537.8368 27.1921L510.8975 64.0564L539.8000 103.5383L527.2574 103.5383L504.3536 72.0182" fill="#1f2f5f" transform="scale(0.99929709,1.0007034)"/>
</svg>
