<svg xmlns="http://www.w3.org/2000/svg" viewBox="0 0 566.92932 213.332">
  <path d="m 0,0 c 6.846,0 10.27,2.691 10.27,8.074 0,5.054 -3.442,7.582 -10.325,7.582 H -12.91 V 0 Z m 0,18.842 c 2.746,0 4.897,0.603 6.453,1.813 1.556,1.208 2.334,2.819 2.334,4.833 0,4.905 -2.965,7.36 -8.897,7.36 h -12.8 V 18.842 Z m -0.055,17.192 c 4.064,0 7.176,-0.815 9.337,-2.445 2.16,-1.629 3.241,-4 3.241,-7.113 0,-2.051 -0.597,-3.909 -1.786,-5.575 -1.19,-1.666 -2.864,-2.756 -5.025,-3.269 v -0.11 c 2.525,-0.328 4.54,-1.363 6.041,-3.102 1.501,-1.74 2.253,-3.893 2.253,-6.456 0,-3.662 -1.192,-6.436 -3.571,-8.32 C 8.054,-2.243 4.577,-3.186 0,-3.186 h -16.644 v 39.22 z" fill="#1f2f5f" transform="matrix(1.3333333,0,0,-1.3333333,221.6972,181.79173)"/>
  <path d="m 0,0 c 0,-1.061 0.348,-1.949 1.045,-2.664 0.695,-0.713 1.593,-1.072 2.691,-1.072 1.061,0 1.949,0.359 2.664,1.072 C 7.113,-1.949 7.472,-1.061 7.472,0 7.472,0.99 7.131,1.858 6.455,2.609 5.777,3.359 4.852,3.736 3.681,3.736 2.693,3.736 1.831,3.396 1.1,2.719 0.367,2.041 0,1.135 0,0 M 3.736,5.879 C 5.347,5.879 6.73,5.292 7.883,4.121 9.036,2.947 9.612,1.575 9.612,0 9.612,-1.575 9.054,-2.947 7.938,-4.119 6.82,-5.292 5.42,-5.877 3.736,-5.877 c -1.611,0 -2.995,0.567 -4.147,1.703 -1.153,1.135 -1.73,2.526 -1.73,4.174 0,1.575 0.558,2.947 1.675,4.121 1.116,1.171 2.517,1.758 4.202,1.758 m 7.196,-27.74 c -0.366,-0.66 -1.558,-1.118 -3.57,-1.372 l -3.461,-0.495 c -3.406,-0.477 -5.769,-1.182 -7.087,-2.117 -1.318,-0.933 -1.976,-2.206 -1.976,-3.817 0,-1.538 0.585,-2.848 1.756,-3.927 1.174,-1.08 2.693,-1.64 4.561,-1.675 2.819,0 5.162,0.823 7.029,2.471 1.868,1.648 2.82,3.773 2.858,6.372 v 4.56 z M 4.121,-8.184 c 6.921,0 10.38,-3.04 10.38,-9.118 v -15.051 c 0,-1.393 0.678,-2.088 2.033,-2.088 0.44,0 0.805,0.074 1.098,0.22 v -2.911 c -0.658,-0.146 -1.391,-0.22 -2.196,-0.22 -1.611,0 -2.701,0.404 -3.269,1.208 -0.569,0.805 -0.852,1.997 -0.852,3.571 v 0.165 h -0.11 c -1.318,-2.088 -2.764,-3.571 -4.338,-4.449 -1.575,-0.88 -3.571,-1.317 -5.987,-1.317 -2.966,0 -5.284,0.731 -6.948,2.195 -1.668,1.465 -2.52,3.498 -2.554,6.097 0,1.868 0.419,3.387 1.263,4.561 0.841,1.171 2.122,2.088 3.845,2.745 1.719,0.66 4.614,1.208 8.678,1.648 2.161,0.22 3.542,0.459 4.147,0.715 0.605,0.255 1.043,0.65 1.318,1.18 0.275,0.531 0.413,1.236 0.413,2.116 0,2.049 -0.623,3.532 -1.868,4.449 -1.246,0.914 -3.096,1.373 -5.548,1.373 -4.797,-0.037 -7.325,-2.235 -7.58,-6.592 h -3.461 c 0.184,3.149 1.263,5.52 3.241,7.113 1.978,1.593 4.742,2.39 8.295,2.39" fill="#1f2f5f" transform="matrix(1.3333333,0,0,-1.3333333,254.35907,136.23733)"/>
  <path d="m 0,0 v -8.512 h 5.769 v -2.911 H 0 V -30.76 c 0,-1.318 0.238,-2.235 0.715,-2.746 0.475,-0.513 1.3,-0.77 2.471,-0.77 0.696,0 1.556,0.055 2.583,0.165 v -2.966 c -1.465,-0.073 -2.492,-0.11 -3.076,-0.11 -2.455,0 -4.092,0.495 -4.917,1.483 -0.823,0.99 -1.237,2.547 -1.237,4.669 v 19.612 h -4.941 v 2.911 h 4.941 V 0 Z" fill="#1f2f5f" transform="matrix(1.3333333,0,0,-1.3333333,286.83893,136.89733)"/>
  <path d="m 0,0 8.899,-24.883 h 0.11 L 17.797,0 h 3.571 L 10.767,-28.344 H 7.087 L -3.844,0 Z" fill="#1f2f5f" transform="matrix(1.3333333,0,0,-1.3333333,300.84227,148.2472)"/>
  <path d="m 0,0 c -0.073,2.819 -0.943,5.208 -2.609,7.168 -1.667,1.96 -3.818,2.939 -6.453,2.939 -2.492,0 -4.559,-0.906 -6.207,-2.719 C -16.917,5.575 -17.944,3.112 -18.347,0 Z m -9.007,13.018 c 3.807,0 6.838,-1.354 9.09,-4.064 2.251,-2.711 3.378,-6.392 3.378,-11.04 v -0.825 h -21.808 c 0,-3.222 0.852,-5.887 2.555,-7.993 1.702,-2.106 3.963,-3.157 6.785,-3.157 4.687,0 7.652,2.416 8.897,7.249 h 3.461 c -0.807,-3.479 -2.225,-6.041 -4.257,-7.689 -2.033,-1.648 -4.734,-2.471 -8.101,-2.471 -3.956,0 -7.079,1.336 -9.366,4.009 -2.29,2.672 -3.433,6.335 -3.433,10.985 0,4.469 1.153,8.085 3.459,10.849 2.308,2.764 5.421,4.147 9.34,4.147" fill="#1f2f5f" transform="matrix(1.3333333,0,0,-1.3333333,357.33093,164.50747)"/>
  <path d="m 0,0 h -0.55 c -2.892,0 -5.282,-0.961 -7.168,-2.884 -1.886,-1.923 -2.829,-4.368 -2.829,-7.333 v -15.051 h -3.461 V 3.076 h 3.186 v -6.647 h 0.11 c 0.843,2.269 2.143,4.009 3.9,5.219 1.758,1.208 3.789,1.813 6.097,1.813 l 0.715,0 z" fill="#1f2f5f" transform="matrix(1.3333333,0,0,-1.3333333,384.6424,152.34827)"/>
  <path d="m 0,0 v -24.608 l 15.709,13.733 h 4.616 L 8.239,-21.368 21.148,-39.219 H 16.809 L 5.604,-23.783 0,-28.454 V -39.219 H -3.461 V 0 Z" fill="#1f2f5f" transform="matrix(1.3333333,0,0,-1.3333333,391.40773,133.7468)"/>
  <path d="M 0,0 C 3.076,0 5.547,-0.796 7.414,-2.389 9.282,-3.982 10.27,-6.225 10.38,-9.117 H 6.92 c -0.074,1.977 -0.779,3.505 -2.115,4.587 -1.336,1.079 -3.104,1.619 -5.3,1.619 -2.051,0 -3.681,-0.44 -4.889,-1.318 -1.208,-0.88 -1.813,-2.069 -1.813,-3.57 0,-2.308 2.123,-3.938 6.372,-4.889 4.394,-0.988 7.087,-1.74 8.075,-2.253 0.987,-0.513 1.794,-1.124 2.417,-1.839 0.622,-0.713 1.062,-1.447 1.318,-2.198 0.255,-0.75 0.383,-1.585 0.383,-2.5 0,-2.562 -1.053,-4.623 -3.157,-6.178 C 6.105,-29.212 3.367,-29.99 0,-29.99 c -7.178,0 -11.061,3.33 -11.645,9.995 h 3.461 c 0.144,-2.271 0.969,-4.019 2.47,-5.245 1.502,-1.226 3.461,-1.839 5.877,-1.839 2.308,0 4.176,0.503 5.604,1.509 1.427,1.008 2.142,2.28 2.142,3.817 0,1.465 -0.541,2.591 -1.621,3.38 -1.08,0.786 -2.774,1.436 -5.08,1.949 l -3.681,0.825 c -2.782,0.621 -4.844,1.52 -6.18,2.691 -1.336,1.171 -2.004,2.819 -2.004,4.944 0,2.489 1.006,4.44 3.02,5.85 C -5.622,-0.705 -3.078,0 0,0" fill="#1f2f5f" transform="matrix(1.3333333,0,0,-1.3333333,433.58613,147.15)"/>
  <path d="m 0,0 v -8.512 h 5.769 v -2.911 H 0 V -30.76 c 0,-1.318 0.238,-2.235 0.715,-2.746 0.475,-0.513 1.3,-0.77 2.471,-0.77 0.696,0 1.556,0.055 2.583,0.165 v -2.966 c -1.465,-0.073 -2.492,-0.11 -3.076,-0.11 -2.455,0 -4.092,0.495 -4.917,1.483 -0.823,0.99 -1.237,2.547 -1.237,4.669 v 19.612 h -4.941 v 2.911 h 4.941 V 0 Z" fill="#1f2f5f" transform="matrix(1.3333333,0,0,-1.3333333,459.7732,136.89733)"/>
  <path d="m 0,0 c -0.367,-0.66 -1.556,-1.118 -3.571,-1.373 l -3.461,-0.495 c -3.403,-0.477 -5.766,-1.181 -7.084,-2.116 -1.318,-0.933 -1.978,-2.206 -1.978,-3.818 0,-1.537 0.585,-2.847 1.758,-3.927 1.171,-1.079 2.691,-1.639 4.559,-1.674 2.819,0 5.163,0.823 7.031,2.471 1.868,1.648 2.819,3.772 2.856,6.371 L 0.11,0 Z m -6.812,13.676 c 6.922,0 10.383,-3.039 10.383,-9.117 v -15.051 c 0,-1.394 0.676,-2.088 2.033,-2.088 0.438,0 0.804,0.073 1.098,0.22 v -2.911 c -0.66,-0.147 -1.392,-0.22 -2.198,-0.22 -1.612,0 -2.701,0.403 -3.268,1.208 -0.568,0.805 -0.851,1.996 -0.851,3.571 v 0.165 h -0.11 c -1.318,-2.088 -2.766,-3.571 -4.339,-4.449 -1.576,-0.88 -3.57,-1.318 -5.988,-1.318 -2.966,0 -5.282,0.731 -6.948,2.196 -1.667,1.464 -2.518,3.497 -2.555,6.097 0,1.867 0.422,3.387 1.263,4.56 0.843,1.171 2.125,2.088 3.846,2.746 1.721,0.66 4.614,1.208 8.679,1.648 2.16,0.22 3.543,0.458 4.148,0.715 0.603,0.255 1.043,0.65 1.318,1.179 0.275,0.532 0.411,1.237 0.411,2.117 0,2.049 -0.623,3.532 -1.868,4.448 -1.244,0.915 -3.094,1.373 -5.547,1.373 -4.799,-0.036 -7.324,-2.234 -7.581,-6.591 h -3.461 c 0.184,3.149 1.265,5.52 3.241,7.113 1.978,1.593 4.742,2.389 8.294,2.389" fill="#1f2f5f" transform="matrix(1.3333333,0,0,-1.3333333,495.3004,165.3848)"/>
  <path d="m 0,0 c 0,-3.552 0.823,-6.453 2.471,-8.706 1.648,-2.251 3.919,-3.377 6.811,-3.377 3.003,0 5.411,1.061 7.223,3.186 1.813,2.122 2.72,5.088 2.72,8.897 0,3.736 -0.888,6.683 -2.665,8.844 -1.776,2.162 -4.202,3.241 -7.278,3.241 -2.855,0 -5.116,-1.108 -6.783,-3.322 C 0.833,6.547 0,3.626 0,0 M 22.686,25.048 V -14.171 H 19.5 v 5.384 h -0.11 c -0.734,-1.795 -2.033,-3.278 -3.901,-4.451 -1.868,-1.171 -3.935,-1.756 -6.207,-1.756 -3.882,0 -6.976,1.344 -9.282,4.037 -2.308,2.691 -3.461,6.343 -3.461,10.957 0,4.506 1.145,8.129 3.432,10.877 2.29,2.746 5.392,4.119 9.311,4.119 2.308,0 4.376,-0.587 6.207,-1.758 1.831,-1.171 3.039,-2.654 3.626,-4.449 h 0.11 v 16.259 z" fill="#1f2f5f" transform="matrix(1.3333333,0,0,-1.3333333,509.19507,167.14467)"/>
  <path d="M 139.391,20.471 H 20.342 V 139.52 h 119.049 z" fill="#1f2f5f" transform="matrix(1.3333333,0,0,-1.3333333,0,213.332)"/>
  <path d="m 0,0 6.829,-6.828 c 0.506,-0.507 1.36,-0.447 1.773,0.138 5.091,7.219 8.116,15.999 8.116,25.505 0,9.506 -3.025,18.285 -8.116,25.505 -0.413,0.585 -1.267,0.644 -1.773,0.138 L 0,37.63 C -0.383,37.247 -0.438,36.658 -0.149,36.2 3.035,31.17 4.88,25.208 4.88,18.815 4.88,12.421 3.035,6.46 -0.149,1.43 -0.438,0.972 -0.383,0.383 0,0" fill="#42b8ea" transform="matrix(1.3333333,0,0,-1.3333333,143.38507,131.75773)"/>
  <path d="M 0,0 C -0.383,0.383 -0.972,0.438 -1.43,0.149 -6.46,-3.035 -12.421,-4.88 -18.815,-4.88 -25.208,-4.88 -31.17,-3.035 -36.2,0.149 -36.657,0.438 -37.247,0.383 -37.63,0 l -6.828,-6.828 c -0.506,-0.507 -0.447,-1.361 0.138,-1.774 7.22,-5.091 15.999,-8.115 25.505,-8.115 9.506,0 18.286,3.024 25.505,8.115 0.585,0.413 0.645,1.267 0.139,1.773 z" fill="#42b8ea" transform="matrix(1.3333333,0,0,-1.3333333,131.57493,143.56787)"/>
  <path d="m 0,0 c 0.392,-0.392 0.997,-0.449 1.466,-0.153 5.026,3.177 10.98,5.017 17.365,5.017 6.386,0 12.34,-1.84 17.366,-5.017 0.469,-0.296 1.073,-0.239 1.466,0.153 l 6.787,6.788 c 0.519,0.519 0.458,1.394 -0.142,1.817 -7.214,5.08 -15.983,8.096 -25.477,8.096 C 9.338,16.701 0.569,13.685 -6.645,8.605 -7.246,8.182 -7.307,7.307 -6.788,6.788 Z" fill="#42b8ea" transform="matrix(1.3333333,0,0,-1.3333333,81.38,69.752667)"/>
  <path d="m 0,0 -6.83,6.83 c -0.506,0.506 -1.359,0.446 -1.771,-0.139 -5.092,-7.219 -8.117,-15.999 -8.117,-25.505 0,-9.507 3.025,-18.287 8.117,-25.506 0.412,-0.585 1.266,-0.644 1.771,-0.138 L 0,-37.629 c 0.383,0.383 0.438,0.972 0.149,1.429 -3.185,5.03 -5.03,10.992 -5.03,17.386 0,6.393 1.845,12.355 5.03,17.385 C 0.438,-0.971 0.383,-0.383 0,0" fill="#42b8ea" transform="matrix(1.3333333,0,0,-1.3333333,69.592533,81.585467)"/>
  <path d="M210.5607 69.7214L210.5607 90.7571Q210.5607 97.5737 212.0518 99.2246Q214.0755 101.5678 218.1761 101.5678L220.9454 101.5678L220.9454 103.5383L190.0043 103.5383L190.0043 101.5678L192.7203 101.5678Q197.3002 101.5678 199.2706 98.5856Q200.3357 96.9347 200.3357 90.7571L200.3357 44.1058Q200.3357 37.2892 198.8979 35.6383Q196.8209 33.2951 192.7203 33.2951L190.0043 33.2951L190.0043 31.3246L216.4720 31.3246Q226.1644 31.3246 231.7561 33.3217Q237.3479 35.3188 241.1822 40.0584Q245.0166 44.7981 245.0166 51.2952Q245.0166 60.1355 239.1852 65.6740Q233.3538 71.2125 222.7028 71.2125Q220.0933 71.2125 217.0578 70.8398Q214.0222 70.4670 210.5607 69.7214M210.5607 36.6501L210.5607 66.6859Q213.3832 67.2184 215.5666 67.4847Q217.7501 67.7510 219.2945 67.7510Q224.8330 67.7510 228.8537 63.4640Q232.8745 59.1769 232.8745 52.3603Q232.8745 47.6739 230.9573 43.6531Q229.0401 39.6324 225.5253 37.6353Q222.0105 35.6383 217.5371 35.6383Q214.8211 35.6383 210.5607 36.6501 M322.5401 101.5678L322.5401 103.5383L303.2618 103.5383L278.8178 69.7747Q276.1018 69.8812 274.3977 69.8812Q273.7053 69.8812 272.9065 69.8545Q272.1077 69.8279 271.2556 69.7747L271.2556 90.7571Q271.2556 97.5737 272.7468 99.2246Q274.7704 101.5678 278.8178 101.5678L281.6403 101.5678L281.6403 103.5383L250.6992 103.5383L250.6992 101.5678L253.4152 101.5678Q257.9952 101.5678 259.9656 98.5856Q261.0839 96.9347 261.0839 90.7571L261.0839 44.1058Q261.0839 37.2892 259.5928 35.6383Q257.5159 33.2951 253.4152 33.2951L250.6992 33.2951L250.6992 31.3246L277.0071 31.3246Q288.5102 31.3246 293.9688 33.0022Q299.4275 34.6797 303.2352 39.1797Q307.0429 43.6798 307.0429 49.9106Q307.0429 56.5675 302.7026 61.4669Q298.3624 66.3664 289.2558 68.3900L304.1671 89.1062Q309.2796 96.2423 312.9542 98.5856Q316.6288 100.9288 322.5401 101.5678M271.2556 36.3839L271.2556 66.4196Q272.2675 66.4196 273.0130 66.4462Q273.7586 66.4729 274.2379 66.4729Q284.5693 66.4729 289.8149 61.9995Q295.0606 57.5260 295.0606 50.6029Q295.0606 43.8395 290.8268 39.6058Q286.5930 35.3720 279.6166 35.3720Q276.5279 35.3720 271.2556 36.3839 M352.6342 101.5678L355.2437 101.5678L355.2437 103.5383L324.3026 103.5383L324.3026 101.5678L326.8588 101.5678Q331.3323 101.5678 333.3559 98.9583Q334.6341 97.2542 334.6341 90.7571L334.6341 44.1058Q334.6341 38.6206 333.9417 36.8631Q333.4092 35.5318 331.7583 34.5732Q329.4151 33.2951 326.8588 33.2951L324.3026 33.2951L324.3026 31.3246L355.2437 31.3246L355.2437 33.2951L352.6342 33.2951Q348.2141 33.2951 346.1904 35.9046Q344.8590 37.6087 344.8590 44.1058L344.8590 90.7571Q344.8590 96.2423 345.5513 97.9998Q346.0839 99.3311 347.7880 100.2897Q350.0780 101.5678 352.6342 101.5678 M397.7877 29.6737Q411.8469 29.6737 422.1518 40.3513Q432.4566 51.0289 432.4566 67.0054Q432.4566 83.4612 422.0719 94.3252Q411.6872 105.1892 396.9356 105.1892Q382.0242 105.1892 371.8792 94.5914Q361.7341 83.9937 361.7341 67.1652Q361.7341 49.9638 373.4502 39.0999Q383.6219 29.6737 397.7877 29.6737M396.7758 33.5613Q387.0834 33.5613 381.2254 40.7508Q373.9295 49.6976 373.9295 66.9522Q373.9295 84.6328 381.4917 94.1654Q387.2964 101.4081 396.8291 101.4081Q407.0008 101.4081 413.6310 93.4731Q420.2612 85.5381 420.2612 68.4433Q420.2612 49.9106 412.9653 40.8040Q407.1073 33.5613 396.7758 33.5613 M495.5134 45.2242L481.1878 63.5438L496.6850 86.6565Q503.1288 96.2423 506.2443 98.7719Q509.3597 101.3016 514.1526 101.5678L514.1526 103.5383L483.1583 103.5383L483.1583 101.5678Q486.2470 101.5146 487.7382 100.9288Q488.8565 100.4495 489.5755 99.4643Q490.2944 98.4790 490.2944 97.4672Q490.2944 96.2423 489.8151 95.0175Q489.4423 94.1121 486.8861 90.3311L474.6375 71.7984L459.5131 91.1831Q457.1166 94.2719 456.6373 95.3104Q456.1580 96.3489 456.1580 97.4672Q456.1580 99.1714 457.5959 100.2897Q459.0338 101.4081 463.0812 101.5678L463.0812 103.5383L437.4656 103.5383L437.4656 101.5678Q440.1816 101.3016 442.1520 100.4495Q445.4538 99.0649 448.4361 96.7216Q451.4184 94.3784 455.2527 89.5322L472.2943 68.0173L458.0752 47.1946Q452.2704 38.7271 448.2231 36.0910Q444.1757 33.4548 438.9035 33.2951L438.9035 31.3246L472.2943 31.3246L472.2943 33.2951Q468.0339 33.4548 466.4629 34.6797Q464.8918 35.9046 464.8918 37.3957Q464.8918 39.3661 467.4481 43.1472L478.5251 59.7095L491.3595 43.4668Q493.5962 40.5910 494.1021 39.5259Q494.6081 38.4608 494.6081 37.3424Q494.6081 36.2241 493.9690 35.3720Q493.1702 34.2537 491.9453 33.8010Q490.7205 33.3483 486.8861 33.2951L486.8861 31.3246L512.5017 31.3246L512.5017 33.2951Q509.4662 33.4548 507.5490 34.2537Q504.6732 35.4785 502.2768 37.5555Q499.8803 39.6324 495.5134 45.2242" fill="#1f2f5f" transform="scale(0.99929709,1.0007034)"/>
</svg>
