<svg xmlns="http://www.w3.org/2000/svg" viewBox="27.123 27.305 158.732 158.732">
  <path d="M 139.391,20.471 H 20.342 V 139.52 h 119.049 z" fill="#1f2f5f" transform="matrix(1.3333333,0.0,0.0,-1.3333333,0.0,213.332)"/>
  <path d="m 0,0 6.829,-6.828 c 0.506,-0.507 1.36,-0.447 1.773,0.138 5.091,7.219 8.116,15.999 8.116,25.505 0,9.506 -3.025,18.285 -8.116,25.505 -0.413,0.585 -1.267,0.644 -1.773,0.138 L 0,37.63 C -0.383,37.247 -0.438,36.658 -0.149,36.2 3.035,31.17 4.88,25.208 4.88,18.815 4.88,12.421 3.035,6.46 -0.149,1.43 -0.438,0.972 -0.383,0.383 0,0" fill="#42b8ea" transform="matrix(1.3333333,0.0,0.0,-1.3333333,143.38507,131.75773)"/>
  <path d="M 0,0 C -0.383,0.383 -0.972,0.438 -1.43,0.149 -6.46,-3.035 -12.421,-4.88 -18.815,-4.88 -25.208,-4.88 -31.17,-3.035 -36.2,0.149 -36.657,0.438 -37.247,0.383 -37.63,0 l -6.828,-6.828 c -0.506,-0.507 -0.447,-1.361 0.138,-1.774 7.22,-5.091 15.999,-8.115 25.505,-8.115 9.506,0 18.286,3.024 25.505,8.115 0.585,0.413 0.645,1.267 0.139,1.773 z" fill="#42b8ea" transform="matrix(1.3333333,0.0,0.0,-1.3333333,131.57493,143.56787)"/>
  <path d="m 0,0 c 0.392,-0.392 0.997,-0.449 1.466,-0.153 5.026,3.177 10.98,5.017 17.365,5.017 6.386,0 12.34,-1.84 17.366,-5.017 0.469,-0.296 1.073,-0.239 1.466,0.153 l 6.787,6.788 c 0.519,0.519 0.458,1.394 -0.142,1.817 -7.214,5.08 -15.983,8.096 -25.477,8.096 C 9.338,16.701 0.569,13.685 -6.645,8.605 -7.246,8.182 -7.307,7.307 -6.788,6.788 Z" fill="#42b8ea" transform="matrix(1.3333333,0.0,0.0,-1.3333333,81.38,69.752667)"/>
  <path d="m 0,0 -6.83,6.83 c -0.506,0.506 -1.359,0.446 -1.771,-0.139 -5.092,-7.219 -8.117,-15.999 -8.117,-25.505 0,-9.507 3.025,-18.287 8.117,-25.506 0.412,-0.585 1.266,-0.644 1.771,-0.138 L 0,-37.629 c 0.383,0.383 0.438,0.972 0.149,1.429 -3.185,5.03 -5.03,10.992 -5.03,17.386 0,6.393 1.845,12.355 5.03,17.385 C 0.438,-0.971 0.383,-0.383 0,0" fill="#42b8ea" transform="matrix(1.3333333,0.0,0.0,-1.3333333,69.592533,81.585467)"/>
</svg>
